<?xml version="1.0" encoding="utf-8"?>
<svg width="256" height="240" viewBox="0 0 256 240" fill="none" xmlns="http://www.w3.org/2000/svg">
    <path d="M250.066 0L142.384 74.478L160.555 31.797L250.066 0Z" fill="#E17726"/>
    <path d="M6.39409 0L112.851 75.168L95.9035 31.797L6.39409 0Z" fill="#E27625"/>
    <path d="M212.86 172.371L185.598 212.952L243.818 228.565L260.271 173.161L212.86 172.371Z" fill="#E27625"/>
    <path d="M0.194824 173.161L16.5477 228.565L74.7685 212.952L47.5058 172.371L0.194824 173.161Z" fill="#E27625"/>
    <path d="M71.6253 104.55L56.5308 128.352L113.961 130.822L112.071 68.5083L71.6253 104.55Z" fill="#E27625"/>
    <path d="M184.933 104.55L143.697 67.8188L142.384 130.822L199.814 128.352L184.933 104.55Z" fill="#E27625"/>
    <path d="M74.7685 212.952L110.87 196.549L79.5898 173.541L74.7685 212.952Z" fill="#E27625"/>
    <path d="M145.587 196.549L181.688 212.952L176.867 173.541L145.587 196.549Z" fill="#E27625"/>
    <path d="M181.688 212.952L145.587 196.549L148.358 218.666L148.168 228.565L181.688 212.952Z" fill="#D5BFB2"/>
    <path d="M74.7685 212.952L108.289 228.565L108.289 218.666L110.87 196.549L74.7685 212.952Z" fill="#D5BFB2"/>
    <path d="M109.079 159.096L78.8689 150.976L100.281 141.867L109.079 159.096Z" fill="#233447"/>
    <path d="M147.378 159.096L156.176 141.867L177.778 150.976L147.378 159.096Z" fill="#233447"/>
    <path d="M74.7685 212.952L79.7797 172.371L47.5059 173.161L74.7685 212.952Z" fill="#CC6228"/>
    <path d="M176.677 172.371L181.688 212.952L208.951 173.161L176.677 172.371Z" fill="#CC6228"/>
    <path d="M199.814 128.352L142.384 130.822L147.378 159.096L156.176 141.867L177.778 150.976L199.814 128.352Z" fill="#CC6228"/>
    <path d="M78.8689 150.976L100.281 141.867L109.079 159.096L113.961 130.822L56.5308 128.352L78.8689 150.976Z" fill="#CC6228"/>
    <path d="M56.5308 128.352L79.5898 173.541L78.8689 150.976L56.5308 128.352Z" fill="#E27525"/>
    <path d="M177.778 150.976L176.867 173.541L199.814 128.352L177.778 150.976Z" fill="#E27525"/>
    <path d="M113.961 130.822L109.079 159.096L115.162 192.558L116.665 147.772L113.961 130.822Z" fill="#E27525"/>
    <path d="M142.384 130.822L139.87 147.772L141.183 192.558L147.378 159.096L142.384 130.822Z" fill="#E27525"/>
    <path d="M147.378 159.096L141.183 192.558L145.587 196.549L176.867 173.541L177.778 150.976L147.378 159.096Z" fill="#F5841F"/>
    <path d="M78.8689 150.976L79.5898 173.541L110.87 196.549L115.162 192.558L109.079 159.096L78.8689 150.976Z" fill="#F5841F"/>
    <path d="M148.168 228.565L148.358 218.666L145.777 216.196H110.68L108.289 218.666L108.289 228.565L74.7685 212.952L85.8068 222.161L110.3 239.11H146.157L170.65 222.161L181.688 212.952L148.168 228.565Z" fill="#C0AC9D"/>
    <path d="M145.587 196.549L141.183 192.558H115.162L110.87 196.549L108.289 218.666L110.68 216.196H145.777L148.358 218.666L145.587 196.549Z" fill="#161616"/>
    <path d="M245.328 78.9489L253.936 39.1577L250.066 0L145.587 71.3186L184.933 104.55L243.054 119.473L254.847 105.929L249.473 101.938L257.7 93.8718L251.19 88.7371L259.417 82.1597L245.328 78.9489Z" fill="#763E1A"/>
    <path d="M2.52075 39.1577L11.1287 78.9489L-3.15039 82.1597L5.07715 88.7371L-1.43316 93.8718L6.79421 101.938L1.42007 105.929L13.2132 119.473L71.3347 104.55L110.68 71.3186L6.20146 0L2.52075 39.1577Z" fill="#763E1A"/>
    <path d="M243.054 119.473L184.933 104.55L199.814 128.352L176.867 173.541L208.951 173.161L260.271 173.161L243.054 119.473Z" fill="#F5841F"/>
    <path d="M71.3347 104.55L13.2132 119.473L-3.81445 173.161H47.5059L79.5898 173.541L56.5308 128.352L71.3347 104.55Z" fill="#F5841F"/>
    <path d="M142.384 130.822L145.587 71.3186L160.555 31.797H95.9035L110.68 71.3186L113.961 130.822L115.162 147.772L115.162 192.558H141.183L141.183 147.772L142.384 130.822Z" fill="#F5841F"/>
</svg> 