<?xml version="1.0" encoding="utf-8"?>
<svg xmlns="http://www.w3.org/2000/svg" width="108" height="108" viewBox="0 0 108 108" fill="none">
<rect width="108" height="108" rx="26" fill="#AB9FF2"/>
<path fill-rule="evenodd" clip-rule="evenodd" d="M46.5267 69.9229C42.7741 73.6755 37.0714 74.7111 33.9534 71.5931C30.8354 68.4751 31.871 62.7724 35.6236 59.0198C43.0626 51.5808 46.5267 47.4737 46.5267 47.4737C46.5267 47.4737 49.9908 51.5808 57.4298 59.0198C61.1824 62.7724 62.218 68.4751 59.1 71.5931C55.982 74.7111 50.2793 73.6755 46.5267 69.9229Z" fill="white"/>
<path fill-rule="evenodd" clip-rule="evenodd" d="M74.1773 42.2723C70.4247 46.0249 64.722 47.0605 61.604 43.9425C58.486 40.8245 59.5216 35.1218 63.2742 31.3692C70.7132 23.9302 74.1773 19.8231 74.1773 19.8231C74.1773 19.8231 77.6414 23.9302 85.0804 31.3692C88.833 35.1218 89.8686 40.8245 86.7506 43.9425C83.6326 47.0605 77.9299 46.0249 74.1773 42.2723Z" fill="white"/>
<path fill-rule="evenodd" clip-rule="evenodd" d="M18.876 42.2723C15.1234 46.0249 9.42073 47.0605 6.30273 43.9425C3.18473 40.8245 4.22034 35.1218 7.97294 31.3692C15.4119 23.9302 18.876 19.8231 18.876 19.8231C18.876 19.8231 22.3401 23.9302 29.7791 31.3692C33.5317 35.1218 34.5673 40.8245 31.4493 43.9425C28.3313 47.0605 22.6286 46.0249 18.876 42.2723Z" fill="white"/>
<path fill-rule="evenodd" clip-rule="evenodd" d="M46.5267 88.1768C42.7741 91.9294 37.0714 92.965 33.9534 89.847C30.8354 86.729 31.871 81.0263 35.6236 77.2737C43.0626 69.8347 46.5267 65.7276 46.5267 65.7276C46.5267 65.7276 49.9908 69.8347 57.4298 77.2737C61.1824 81.0263 62.218 86.729 59.1 89.847C55.982 92.965 50.2793 91.9294 46.5267 88.1768Z" fill="white"/>
</svg> 